Coordinates
version=1
nRows=29
nColumns=24
inDegrees=yes

Units are S.I. units (second, meters, Newtons, ...)
Angles are in degrees.

endheader
time	pelvis_tilt	pelvis_list	pelvis_rotation	pelvis_tx	pelvis_ty	pelvis_tz	hip_flexion_r	hip_adduction_r	hip_rotation_r	knee_angle_r	ankle_angle_r	subtalar_angle_r	mtp_angle_r	hip_flexion_l	hip_adduction_l	hip_rotation_l	knee_angle_l	ankle_angle_l	subtalar_angle_l	mtp_angle_l	lumbar_extension	lumbar_bending	lumbar_rotation
      0.66200000	      5.05316106	      3.17365420	      2.63845716	     -0.01171455	      0.97612110	      0.26465279	     19.32699559	     -4.21581607	     -4.45899259	      5.16096055	      2.67133308	     -6.00652200	      0.13821611	    -31.93642629	      5.53356507	      9.23059867	      3.67143763	     10.84494893	     -6.53347021	      0.10949148	    -17.91031432	      7.32681522	    -12.85262284
      0.66616667	      4.96053902	      3.03026558	      2.67706920	     -0.00584785	      0.97539871	      0.26498490	     19.46956257	     -4.03729704	     -3.97598731	      4.59927357	      2.41907932	     -6.49187778	      0.20218627	    -31.99626429	      5.35934206	      9.07353086	      3.30895058	     10.81607832	     -6.37297045	      0.07623978	    -17.79381127	      7.53813903	    -12.80324285
      0.67033333	      4.87714194	      2.85578589	      2.71898915	      0.00007958	      0.97472140	      0.26533791	     19.59230089	     -3.82156051	     -3.48686137	      4.02201158	      2.11639761	     -7.05673405	      0.26701990	    -32.05084928	      5.15307918	      8.87224550	      2.91579028	     10.79917740	     -6.14808188	      0.07945720	    -17.68488063	      7.78846400	    -12.77132875
      0.67450000	      4.79232062	      2.66772125	      2.75765040	      0.00605260	      0.97407251	      0.26570535	     19.72351493	     -3.58733113	     -3.02225781	      3.40718417	      1.76704173	     -7.60293738	      0.33338647	    -32.09186968	      4.93708437	      8.65695792	      2.49873235	     10.77021454	     -5.92699562	      0.12182195	    -17.56241886	      8.06008221	    -12.72311121
      0.67866667	      4.69670063	      2.46047890	      2.79285116	      0.01208182	      0.97343640	      0.26609024	     19.86905523	     -3.32849530	     -2.57916115	      2.76907499	      1.35283438	     -8.14975896	      0.40031824	    -32.11644582	      4.70575622	      8.43386091	      2.07221413	     10.71546614	     -5.71832869	      0.20224500	    -17.43265761	      8.35176945	    -12.67485929
      0.68283333	      4.60636675	      2.23756801	      2.82540583	      0.01816080	      0.97283754	      0.26649363	     20.00847105	     -3.04876013	     -2.15699629	      2.11794587	      0.87880068	     -8.69171593	      0.47311548	    -32.13586376	      4.46073502	      8.19914276	      1.62449780	     10.64128668	     -5.51765382	      0.32583019	    -17.30011843	      8.65929889	    -12.61698896
      0.68700000	      4.51334913	      1.99978932	      2.85405128	      0.02428506	      0.97226694	      0.26691832	     20.15843889	     -2.74856588	     -1.77762275	      1.44321202	      0.35208448	     -9.20816824	      0.54717762	    -32.14503953	      4.20392783	      7.96088251	      1.16432953	     10.53736571	     -5.33718491	      0.48430289	    -17.16007889	      8.98343393	    -12.55933114
      0.69116667	      4.41424268	      1.74679370	      2.88036639	      0.03045910	      0.97171716	      0.26735342	     20.31883216	     -2.43007781	     -1.42686779	      0.75532873	     -0.23391629	     -9.72984972	      0.62818717	    -32.13676710	      3.93505444	      7.70982631	      0.68190864	     10.41241081	     -5.16637805	      0.68583556	    -17.01362869	      9.32528824	    -12.49514961
      0.69533333	      4.31428349	      1.48219066	      2.90333204	      0.03667643	      0.97119850	      0.26781956	     20.48245640	     -2.09469420	     -1.09945057	      0.05825242	     -0.87125558	    -10.25333674	      0.72269664	    -32.11684351	      3.65568345	      7.45033201	      0.18070330	     10.26328517	     -4.99832292	      0.94475831	    -16.87005797	      9.67292721	    -12.42677891
      0.69950000	      4.23037770	      1.18379649	      2.92447485	      0.04297277	      0.97072646	      0.26823718	     20.65605751	     -1.73119252	     -0.91782651	     -0.70740059	     -1.40052400	    -10.48648822	      0.75936293	    -32.12571816	      3.34931076	      7.23079824	     -0.29609133	     10.01023480	     -4.98590839	      1.05899107	    -16.72149445	     10.10017779	    -12.36035474
      0.70366667	      4.14006844	      0.91592708	      2.91947987	      0.04924456	      0.97027279	      0.26877362	     20.82406580	     -1.37891939	     -0.60677288	     -1.42401243	     -2.18913665	    -11.09230405	      2.36013628	    -32.06310335	      3.07849417	      6.81107564	     -0.89291421	      9.78697832	     -4.67885945	      5.61201093	    -16.59092499	     10.43806305	    -12.30043614
      0.70783333	      4.03337937	      0.62359401	      2.95093288	      0.05559046	      0.96984500	      0.26924626	     21.02044851	     -1.01793950	     -0.42831036	     -2.18412653	     -2.89393512	    -11.55831719	      2.36620328	    -32.01709959	      2.76967305	      6.62634211	     -1.42679198	      9.52527955	     -4.65506460	      5.67064309	    -16.42197077	     10.82197570	    -12.21195566
      0.71200000	      3.93721683	      0.32244956	      2.95722642	      0.06197259	      0.96945317	      0.26975925	     21.21566651	     -0.63925368	     -0.25622265	     -2.96305639	     -3.59105104	    -11.98421626	      2.38805637	    -31.95955622	      2.46444306	      6.35787242	     -2.00445187	      9.24156443	     -4.55898915	      5.79447153	    -16.26753111	     11.21922402	    -12.13519789
      0.71616667	      3.84623940	      0.02149455	      2.95603436	      0.06838138	      0.96909997	      0.27028466	     21.41868485	     -0.26020862	     -0.12523146	     -3.77250949	     -4.26825295	    -12.37962085	      2.42600040	    -31.89171185	      2.16242957	      6.07634875	     -2.61037565	      8.92745897	     -4.46243424	      5.98874228	    -16.11341586	     11.62147304	    -12.05741342
      0.72033333	      3.75332030	     -0.28355484	      2.95106977	      0.07482342	      0.96877344	      0.27082474	     21.63537627	      0.12351268	     -0.02478014	     -4.61182178	     -4.90910513	    -12.73982150	      2.48273897	    -31.80815974	      1.85751367	      5.79034448	     -3.23966953	      8.57399404	     -4.37420470	      6.27270015	    -15.95885537	     12.02347773	    -11.97956050
      0.72450000	      3.70434726	     -0.59718146	      2.93889150	      0.08130581	      0.96852900	      0.27133637	     21.83726742	      0.51030850	     -0.03559738	     -5.53435430	     -5.38918879	    -12.88942320	      2.49896422	    -31.78479752	      1.54949134	      5.55789255	     -3.83430646	      8.10525553	     -4.40560118	      6.37001606	    -15.84567017	     12.46023836	    -11.91026728
      0.72866667	      3.57072074	     -0.88571890	      2.91896853	      0.08778080	      0.96821593	      0.27195021	     22.10931797	      0.88431541	      0.07981388	     -6.40723359	     -6.01494355	    -13.34919846	      2.58167263	    -31.59990816	      1.26400157	      5.23499089	     -4.57476359	      7.74273675	     -4.25394888	      6.82431795	    -15.65149679	     12.81524626	    -11.82357445
      0.73283333	      3.53779015	     -1.20680731	      2.89228631	      0.09431778	      0.96804749	      0.27249645	     22.30685479	      1.28234943	      0.03752154	     -7.37454801	     -6.38549251	    -13.47568820	      2.60696586	    -31.56983088	      0.95232799	      4.99934935	     -5.20577179	      7.18377384	     -4.28204286	      6.97391933	    -15.55989592	     13.26239176	    -11.75661507
      0.73700000	      3.45839145	     -1.50944050	      2.87993121	      0.10084483	      0.96786656	      0.27307953	     22.54757584	      1.65707752	     -0.00920492	     -8.32615848	     -6.85490261	    -13.71569549	      3.80349092	    -31.41103373	      0.63964773	      4.63236707	     -5.97564191	      6.58330515	     -4.14185082	     14.02679727	    -15.44140503	     13.63729238	    -11.62520089
      0.74116667	      3.41804732	     -1.80458992	      2.81908101	      0.10738873	      0.96773334	      0.27371592	     22.77352150	      2.04521934	      0.00732984	     -9.36117089	     -7.05899385	    -13.90355904	      3.80395854	    -31.33031341	      0.36789465	      4.39460543	     -6.68587796	      5.98042690	     -4.21582375	     14.04850706	    -15.34670315	     14.04305415	    -11.59370137
      0.74533333	      3.34652323	     -2.09176999	      2.77117283	      0.11394409	      0.96761022	      0.27435046	     23.03008609	      2.41711247	     -0.01249897	    -10.39986031	     -7.25450850	    -14.06996974	      3.80592775	    -31.17740514	      0.09368944	      4.15267028	     -7.46411253	      5.35092720	     -4.23193675	     14.11743863	    -15.23306257	     14.41170273	    -11.53529793
      0.74950000	      3.25897312	     -2.34097032	      2.71197318	      0.12048483	      0.96748859	      0.27500722	     23.31933096	      2.75186649	     -0.03344711	    -11.48813827	     -7.34656545	    -14.18577810	      3.81217471	    -30.95827507	     -0.14231823	      3.86736263	     -8.33693271	      4.73324611	     -4.18364012	     14.33637532	    -15.07385773	     14.73892947	    -11.46363310
      0.75366667	      3.25373766	     -2.60418720	      2.65323948	      0.12702997	      0.96748994	      0.27567391	     23.52408506	      3.10339118	     -0.09061861	    -12.60127675	     -7.31140508	    -14.25090432	      3.83195858	    -30.83126958	     -0.40395702	      3.56467557	     -9.17161456	      3.95017700	     -4.09119029	     18.87557570	    -15.03555204	     15.08927114	    -11.45066725
      0.75783333	      3.22345657	     -2.89968879	      2.59391080	      0.13363001	      0.96751221	      0.27634175	     23.71537014	      3.49336475	     -0.10216739	    -13.64224819	     -7.27570815	    -14.41290799	      3.83081919	    -30.67035000	     -0.68659936	      3.35016326	    -10.03000374	      3.19210708	     -4.16283492	     18.89980603	    -14.95229172	     15.48875947	    -11.36540628
      0.76200000	      3.18092709	     -3.15132267	      2.51661912	      0.14019067	      0.96753713	      0.27706723	     23.93519775	      3.84632978	     -0.09664621	    -14.73114252	     -7.11710677	    -14.49580377	      3.82610519	    -30.45860457	     -0.92612486	      3.11176062	    -10.95027780	      2.39030176	     -4.16634402	     18.98460200	    -14.87525563	     15.80156581	    -11.29935616
      0.76616667	      3.14336914	     -3.36330141	      2.44063139	      0.14671383	      0.96758609	      0.27777697	     24.16125688	      4.15252287	     -0.12254447	    -15.85978282	     -6.83359654	    -14.46957406	      3.80532325	    -30.20545143	     -1.13163530	      2.86422981	    -11.95382148	      1.59338160	     -4.13963767	     19.21204735	    -14.77705231	     16.07697427	    -11.23796354
      0.77033333	      3.17713357	     -3.59102866	      2.38128758	      0.15324773	      0.96776869	      0.27847128	     24.28841744	      4.47587017	     -0.15979578	    -16.96075511	     -6.45716922	    -14.45512909	      3.19306380	    -30.04206978	     -1.36224411	      2.68849144	    -12.89454156	      0.59213926	     -4.20563481	     23.47394107	    -14.77705553	     16.38817360	    -11.27795716
      0.77450000	      3.17909409	     -3.85955252	      2.30175972	      0.15980886	      0.96794819	      0.27923947	     24.39590899	      4.86497413	     -0.09939509	    -17.94789935	     -6.14909108	    -14.62988302	      3.19177067	    -29.80774972	     -1.63090593	      2.44250096	    -13.92029538	     -0.30320138	     -4.17313706	     23.49507715	    -14.74034769	     16.73937900	    -11.19281383
      0.77866667	      3.16579658	     -4.06308916	      2.21655943	      0.16629364	      0.96811605	      0.28001956	     24.53851293	      5.18211310	     -0.06546747	    -18.98801931	     -5.70160414	    -14.61307989	      3.16945946	    -29.50011355	     -1.84262017	      2.18059630	    -15.04316539	     -1.19478540	     -4.08003227	     23.61604735	    -14.68653022	     16.97965663	    -11.12623910
